<?xml version="1.0" encoding="utf-8"?>
<!-- Generator: Adobe Illustrator 26.3.1, SVG Export Plug-In . SVG Version: 6.00 Build 0)  -->
<svg version="1.1" id="Layer_1" xmlns="http://www.w3.org/2000/svg" xmlns:xlink="http://www.w3.org/1999/xlink" x="0px" y="0px"
	 viewBox="0 0 96 32" style="enable-background:new 0 0 96 32;" xml:space="preserve">
<style type="text/css">
	.st0{fill-rule:evenodd;clip-rule:evenodd;fill:#1A8ACB;}
	.st1{fill-rule:evenodd;clip-rule:evenodd;fill:#51AD32;}
	.st2{fill-rule:evenodd;clip-rule:evenodd;fill:#54C2F0;}
	.st3{fill-rule:evenodd;clip-rule:evenodd;fill:#194F9C;}
	.st4{fill:#194F9C;}
	.st5{fill:#51AD32;}
	.st6{fill:#3F414B;}
	.st7{font-family:'Biennale-Black';}
	.st8{font-size:22px;}
</style>
<g>
	<path class="st0" d="M5.6,20.4C7,20,8,20.4,11,19.5l-0.1,3.6C7.2,24,4.6,23.3,5.6,20.4"/>
	<path class="st0" d="M23.8,16.8c-1.7,1.4-3.7,2.7-5.8,3.7c-0.1-0.1-0.2-0.2-0.3-0.2l2.3-1.9l-3.5-1.1c0.7-0.3,1.3-0.7,1.8-1
		c0.3-0.2,0.7-0.5,1.2-0.8L23.8,16.8z"/>
	<path class="st0" d="M25.8,14.9L26,9.4l-0.7,0.3c0.5-1,0.8-2.1,0.5-3.3c0.8,0.5,2.4,2.1,2.4,3.6C28.3,11.6,27.3,13.3,25.8,14.9"/>
	<path class="st1" d="M14,23.9c0.8,0.6,1.7,1.4,2.9,2.3c-0.4,0.2-0.8,0.3-1.2,0.4c-1,0.3-2.7,0.9-3.9,0.9c-1.6,0.1-2.8-1-2.4-2.4
		c0.7-0.3,2.3-0.5,3.3-0.8C13,24.2,13.5,24,14,23.9"/>
	<path class="st1" d="M21.8,23.8c-1-0.7-1.9-1.5-2.6-2.1c2.3-1.2,4.5-2.7,6.3-4.4c0.1-0.1,0.2-0.2,0.2-0.2c1.9-1.9,3.3-3.9,3.4-6.1
		C32.3,15.9,27.1,20.7,21.8,23.8"/>
	<path class="st1" d="M16.2,14.6l1.4,0.4c-1.1,0.7-2.2,1.3-3.2,1.7l-3-0.9c0-0.4,0-0.9,0.1-1.5c1.5-0.8,3.7-1.9,5.7-3.2
		c0.7,0.7,1.4,1.3,1.8,1.8L16.2,14.6z"/>
	<path class="st1" d="M23.7,9.5c-0.1,0.2-0.3,0.5-0.6,0.7c-0.5-0.6-1.3-1.4-2.4-2.4c0.8-1.1,1.4-2.2,1.4-3.5l0.9,0.1
		C25.5,4.8,24.9,7.8,23.7,9.5"/>
	<path class="st2" d="M13.7,8.1c0.9,0.5,1.7,1.2,2.6,2c-2.8,2.1-6.4,3.6-7.9,3.2c-0.3-1-0.3-1.8,0.1-2.3c0-0.1,0.1-0.1,0.2-0.2
		c0.3-0.3,0.7-0.5,1.2-0.7C10.8,9.6,12.3,9,13.7,8.1"/>
	<path class="st2" d="M20.3,5.1c-0.1,0.5-0.4,1.1-0.8,1.7c-0.8-0.6-1.8-1.3-2.8-1.9C17,4.3,16.9,3.6,16.2,3
		C17.9,2.4,20.7,2.8,20.3,5.1"/>
	<path class="st3" d="M29.3,21.5c-0.8,1.2-2.6,2.9-4.5,4.2c-0.7-0.3-1.4-0.8-2-1.3c1-0.6,2-1.3,2.8-1.9c3-2.4,3.3-3.4,4.9-6
		C30.6,18.5,30.3,20.2,29.3,21.5"/>
	<path class="st1" d="M11.1,7c0.5,0.1,0.9,0.2,1.5,0.5c-0.3,0.1-0.6,0.2-0.9,0.2C11.4,7.5,11.2,7.3,11.1,7"/>
	<path class="st1" d="M15.3,4.2c-0.4-0.2-0.8-0.3-1.2-0.5c-0.1-0.1-0.3-0.1-0.4-0.2C15,3.2,15.4,3.6,15.3,4.2"/>
	<path class="st1" d="M29.2,22.6c-0.3,1-1.3,2.6-2.5,3.8c0,0,0,0,0,0c-0.3-0.1-0.7-0.2-1.1-0.4c0.4-0.3,0.8-0.6,1.2-0.9L29.2,22.6z"
		/>
	<path class="st4" d="M25.3,16.5l-7.5-2.1l2.3-1.5c0,0-4.1-4.6-7.1-6c-3-1.4-5.1-0.5-5,2c-1-1.5,0.6-6.8,6.1-4.7
		c5.5,2.1,9.4,7,9.4,7l2-1L25.3,16.5z"/>
	<path class="st5" d="M11.9,16.5l-0.2,6.6l1.4-1.1c0,0,7.7,7.6,13.6,7.1c4.8-0.4,3.3-5.2,3.3-5.2s0.4,3.9-3.3,3
		c-3.7-0.9-9.7-6.8-9.7-6.8l2-1.6L11.9,16.5z"/>
</g>
<text transform="matrix(1 0 0 1 45.3613 24.5483)" class="st6 st7 st8">GI</text>
</svg>
