<?xml version="1.0" encoding="utf-8"?>
<!-- Generator: Adobe Illustrator 26.3.1, SVG Export Plug-In . SVG Version: 6.00 Build 0)  -->
<svg version="1.1" id="Layer_1" xmlns="http://www.w3.org/2000/svg" xmlns:xlink="http://www.w3.org/1999/xlink" x="0px" y="0px"
	 viewBox="0 0 32 32" style="enable-background:new 0 0 32 32;" xml:space="preserve">
<style type="text/css">
	.st0{fill-rule:evenodd;clip-rule:evenodd;fill:#1A8ACB;}
	.st1{fill-rule:evenodd;clip-rule:evenodd;fill:#51AD32;}
	.st2{fill-rule:evenodd;clip-rule:evenodd;fill:#54C2F0;}
	.st3{fill-rule:evenodd;clip-rule:evenodd;fill:#194F9C;}
	.st4{fill:#194F9C;}
	.st5{fill:#51AD32;}
</style>
<g>
	<path class="st0" d="M2.6,20.4C4,20,5,20.4,8,19.5l-0.1,3.6C4.2,24,1.7,23.3,2.6,20.4"/>
	<path class="st0" d="M20.8,16.8c-1.7,1.4-3.7,2.7-5.8,3.7c-0.1-0.1-0.2-0.2-0.3-0.2l2.3-1.9l-3.5-1.1c0.7-0.3,1.3-0.7,1.8-1
		c0.3-0.2,0.7-0.5,1.2-0.8L20.8,16.8z"/>
	<path class="st0" d="M22.9,14.9L23,9.4l-0.7,0.3c0.5-1,0.8-2.1,0.5-3.3c0.8,0.5,2.4,2.1,2.4,3.6C25.3,11.6,24.3,13.3,22.9,14.9"/>
	<path class="st1" d="M11,23.9c0.8,0.6,1.7,1.4,2.9,2.3c-0.4,0.2-0.8,0.3-1.2,0.4c-1,0.3-2.7,0.9-3.9,0.9c-1.6,0.1-2.8-1-2.4-2.4
		c0.7-0.3,2.3-0.5,3.3-0.8C10,24.2,10.5,24,11,23.9"/>
	<path class="st1" d="M18.8,23.8c-1-0.7-1.9-1.5-2.6-2.1c2.3-1.2,4.5-2.7,6.3-4.4c0.1-0.1,0.2-0.2,0.2-0.2c1.9-1.9,3.3-3.9,3.4-6.1
		C29.4,15.9,24.1,20.7,18.8,23.8"/>
	<path class="st1" d="M13.2,14.6l1.4,0.4c-1.1,0.7-2.2,1.3-3.2,1.7l-3-0.9c0-0.4,0-0.9,0.1-1.5c1.5-0.8,3.7-1.9,5.7-3.2
		c0.7,0.7,1.4,1.3,1.8,1.8L13.2,14.6z"/>
	<path class="st1" d="M20.8,9.5c-0.1,0.2-0.3,0.5-0.6,0.7c-0.5-0.6-1.3-1.4-2.4-2.4c0.8-1.1,1.4-2.2,1.4-3.5l0.9,0.1
		C22.5,4.8,21.9,7.8,20.8,9.5"/>
	<path class="st2" d="M10.7,8.1c0.9,0.5,1.7,1.2,2.6,2c-2.8,2.1-6.4,3.6-7.9,3.2c-0.3-1-0.3-1.8,0.1-2.3c0-0.1,0.1-0.1,0.2-0.2
		c0.3-0.3,0.7-0.5,1.2-0.7C7.8,9.6,9.3,9,10.7,8.1"/>
	<path class="st2" d="M17.3,5.1c-0.1,0.5-0.4,1.1-0.8,1.7c-0.8-0.6-1.8-1.3-2.8-1.9C14,4.3,13.9,3.6,13.2,3
		C14.9,2.4,17.7,2.8,17.3,5.1"/>
	<path class="st3" d="M26.4,21.5c-0.8,1.2-2.6,2.9-4.5,4.2c-0.7-0.3-1.4-0.8-2-1.3c1-0.6,2-1.3,2.8-1.9c3-2.4,3.3-3.4,4.9-6
		C27.6,18.5,27.3,20.2,26.4,21.5"/>
	<path class="st1" d="M8.1,7c0.5,0.1,0.9,0.2,1.5,0.5C9.3,7.6,9,7.7,8.7,7.7C8.4,7.5,8.2,7.3,8.1,7"/>
	<path class="st1" d="M12.4,4.2c-0.4-0.2-0.8-0.3-1.2-0.5c-0.1-0.1-0.3-0.1-0.4-0.2C12.1,3.2,12.5,3.6,12.4,4.2"/>
	<path class="st1" d="M26.2,22.6c-0.3,1-1.3,2.6-2.5,3.8c0,0,0,0,0,0c-0.3-0.1-0.7-0.2-1.1-0.4c0.4-0.3,0.8-0.6,1.2-0.9L26.2,22.6z"
		/>
	<path class="st4" d="M22.3,16.5l-7.5-2.1l2.3-1.5c0,0-4.1-4.6-7.1-6C7,5.6,5,6.5,5.1,9c-1-1.5,0.6-6.8,6.1-4.7c5.5,2.1,9.4,7,9.4,7
		l2-1L22.3,16.5z"/>
	<path class="st5" d="M8.9,16.5l-0.2,6.6l1.4-1.1c0,0,7.7,7.6,13.6,7.1c4.8-0.4,3.3-5.2,3.3-5.2s0.4,3.9-3.3,3
		c-3.7-0.9-9.7-6.8-9.7-6.8l2-1.6L8.9,16.5z"/>
</g>
</svg>
