<?xml version="1.0" encoding="utf-8"?>
<!-- Generator: Adobe Illustrator 26.3.1, SVG Export Plug-In . SVG Version: 6.00 Build 0)  -->
<svg version="1.1" id="Layer_1" xmlns="http://www.w3.org/2000/svg" xmlns:xlink="http://www.w3.org/1999/xlink" x="0px" y="0px"
	 viewBox="0 0 96 32" style="enable-background:new 0 0 96 32;" xml:space="preserve">
<style type="text/css">
	.st0{fill-rule:evenodd;clip-rule:evenodd;fill:#1A8ACB;}
	.st1{fill-rule:evenodd;clip-rule:evenodd;fill:#51AD32;}
	.st2{fill-rule:evenodd;clip-rule:evenodd;fill:#54C2F0;}
	.st3{fill-rule:evenodd;clip-rule:evenodd;fill:#194F9C;}
	.st4{fill:#194F9C;}
	.st5{fill:#51AD32;}
	.st6{fill:#FFFFFF;}
</style>
<g>
	<path class="st0" d="M3.5,19.8c1.4-0.4,2.4,0,5.4-0.8l-0.1,3.6C5.2,23.4,2.6,22.8,3.5,19.8"/>
	<path class="st0" d="M21.8,16.2c-1.7,1.4-3.7,2.7-5.8,3.7c-0.1-0.1-0.2-0.2-0.3-0.2l2.3-1.9l-3.5-1.1c0.7-0.3,1.3-0.7,1.8-1
		c0.3-0.2,0.7-0.5,1.2-0.8L21.8,16.2z"/>
	<path class="st0" d="M23.8,14.3L24,8.8l-0.7,0.3c0.5-1,0.8-2.1,0.5-3.3c0.8,0.5,2.4,2.1,2.4,3.6C26.2,11,25.3,12.7,23.8,14.3"/>
	<path class="st1" d="M11.9,23.3c0.8,0.6,1.7,1.4,2.9,2.3c-0.4,0.2-0.8,0.3-1.2,0.4c-1,0.3-2.7,0.9-3.9,0.9c-1.6,0.1-2.8-1-2.4-2.4
		c0.7-0.3,2.3-0.5,3.3-0.8C11,23.6,11.4,23.5,11.9,23.3"/>
	<path class="st1" d="M19.8,23.2c-1-0.7-1.9-1.5-2.6-2.1c2.3-1.2,4.5-2.7,6.3-4.4c0.1-0.1,0.2-0.2,0.2-0.2c1.9-1.9,3.3-3.9,3.4-6.1
		C30.3,15.3,25,20.2,19.8,23.2"/>
	<path class="st1" d="M14.1,14l1.4,0.4c-1.1,0.7-2.2,1.3-3.2,1.7l-3-0.9c0-0.4,0-0.9,0.1-1.5c1.5-0.8,3.7-1.9,5.7-3.2
		c0.7,0.7,1.4,1.3,1.8,1.8L14.1,14z"/>
	<path class="st1" d="M21.7,9c-0.1,0.2-0.3,0.5-0.6,0.7c-0.5-0.6-1.3-1.4-2.4-2.4c0.8-1.1,1.4-2.2,1.4-3.5L21,3.9
		C23.5,4.3,22.9,7.2,21.7,9"/>
	<path class="st2" d="M11.6,7.5c0.9,0.5,1.7,1.2,2.6,2c-2.8,2.1-6.4,3.6-7.9,3.2c-0.3-1-0.3-1.8,0.1-2.3c0-0.1,0.1-0.1,0.2-0.2
		c0.3-0.3,0.7-0.5,1.2-0.7C8.8,9.1,10.3,8.4,11.6,7.5"/>
	<path class="st2" d="M18.3,4.6c-0.1,0.5-0.4,1.1-0.8,1.7c-0.8-0.6-1.8-1.3-2.8-1.9c0.2-0.7,0.1-1.3-0.5-1.9
		C15.8,1.8,18.6,2.3,18.3,4.6"/>
	<path class="st3" d="M27.3,21c-0.8,1.2-2.6,2.9-4.5,4.2c-0.7-0.3-1.4-0.8-2-1.3c1-0.6,2-1.3,2.8-1.9c3-2.4,3.3-3.4,4.9-6
		C28.5,17.9,28.2,19.6,27.3,21"/>
	<path class="st1" d="M9.1,6.4c0.5,0.1,0.9,0.2,1.5,0.5c-0.3,0.1-0.6,0.2-0.9,0.2C9.4,6.9,9.2,6.7,9.1,6.4"/>
	<path class="st1" d="M13.3,3.7c-0.4-0.2-0.8-0.3-1.2-0.5C12,3.1,11.8,3.1,11.7,3C13,2.6,13.4,3,13.3,3.7"/>
	<path class="st1" d="M27.1,22.1c-0.3,1-1.3,2.6-2.5,3.8c0,0,0,0,0,0c-0.3-0.1-0.7-0.2-1.1-0.4c0.4-0.3,0.8-0.6,1.2-0.9L27.1,22.1z"
		/>
	<path class="st4" d="M23.3,15.9l-7.5-2.1l2.3-1.5c0,0-4.1-4.6-7.1-6C8,5,5.9,5.9,6,8.4C5,7,6.6,1.6,12.1,3.7c5.5,2.1,9.4,7,9.4,7
		l2-1L23.3,15.9z"/>
	<path class="st5" d="M9.8,15.9l-0.2,6.6l1.4-1.1c0,0,7.7,7.6,13.6,7.1c4.8-0.4,3.3-5.2,3.3-5.2s0.4,3.9-3.3,3
		c-3.7-0.9-9.7-6.8-9.7-6.8l2-1.6L9.8,15.9z"/>
</g>
<g>
	<path class="st6" d="M49.4,24.3c-5.1,0-8.8-3.7-8.8-8.7c0-5,3.8-8.7,8.8-8.7c4.2,0,6.9,2.5,7.9,5.1l-3.9,1.6
		c-0.6-1.7-2-2.8-4.1-2.8c-2.8,0-4.6,2-4.6,5c0,3,1.8,5,5,5c2.1,0,3.5-0.8,4.2-2.7h-4.7v-3H58C58,21,54.3,24.3,49.4,24.3z"/>
	<path class="st6" d="M60.1,7.2h4V24h-4V7.2z"/>
</g>
</svg>
